<?xml version="1.0" encoding="UTF-8"?>
<svg version="1.1" xmlns="http://www.w3.org/2000/svg" width="146" height="143">
<path d="M0 0 C5.89728589 4.81064588 9.64735892 10.41248905 12.03515625 17.66015625 C12.03515625 18.65015625 12.03515625 19.64015625 12.03515625 20.66015625 C12.59203125 20.73492187 13.14890625 20.8096875 13.72265625 20.88671875 C23.24470095 22.52734132 28.96579784 27.69981661 34.55859375 35.38671875 C39.3499381 42.76386799 39.96925782 49.9383764 39.03515625 58.66015625 C36.6009945 68.43806024 31.00727062 76.13481428 22.4609375 81.40625 C14.07070227 85.7432315 6.13816262 86.86641398 -2.96484375 84.53515625 C-11.18229231 81.82956446 -18.26234861 75.91835527 -22.96484375 68.66015625 C-23.71484375 66.06640625 -23.71484375 66.06640625 -24.27734375 63.41015625 C-25.05316161 60.23900074 -25.35556565 59.04530705 -28.15234375 57.27734375 C-30.7325152 56.30210037 -33.33117033 55.47750317 -35.96484375 54.66015625 C-44.27585548 50.09724785 -49.44035793 43.41636195 -52.30859375 34.453125 C-54.33240675 25.83987324 -53.09491947 17.27983014 -48.78125 9.53515625 C-43.81461036 2.3314183 -35.87557399 -5.02634814 -27.15234375 -6.96484375 C-16.81839916 -8.18060194 -8.45827579 -6.07146075 0 0 Z " fill="#46DEFC" transform="translate(88.96484375,30.33984375)"/>
<path d="M0 0 C4.61251942 3.97189172 7.0631034 8.22177215 9 14 C9 14.99 9 15.98 9 17 C9.556875 17.07476562 10.11375 17.14953125 10.6875 17.2265625 C20.2095447 18.86718507 25.93064159 24.03966036 31.5234375 31.7265625 C36.31478185 39.10371174 36.93410157 46.27822015 36 55 C33.56583825 64.77790399 27.97211437 72.47465803 19.42578125 77.74609375 C11.03554602 82.08307525 3.10300637 83.20625773 -6 80.875 C-14.21744856 78.16940821 -21.29750486 72.25819902 -26 65 C-26.75 62.40625 -26.75 62.40625 -27.3125 59.75 C-28.08831786 56.57884449 -28.3907219 55.3851508 -31.1875 53.6171875 C-32.93194763 52.95782783 -34.69792347 52.35276145 -36.48046875 51.8046875 C-39.83111561 50.73455843 -42.18584186 49.07359021 -45 47 C-40.73676315 47 -37.74332913 47.99464511 -34 50 C-34 50.66 -34 51.32 -34 52 C-31.64628886 52.1968999 -29.2925305 52.38270974 -26.9375 52.5625 C-24.97103516 52.71912109 -24.97103516 52.71912109 -22.96484375 52.87890625 C-16.74577551 53.06884824 -12.25154258 52.68897112 -7.1875 48.9375 C-3.17176471 46 -3.17176471 46 -1 46 C-1 45.34 -1 44.68 -1 44 C-0.34 44 0.32 44 1 44 C5.31627688 35.669989 9.05549944 27.49949495 8 18 C7.34241884 16.66216247 6.67634965 15.32844773 6 14 C5.875 11.25 5.875 11.25 6 9 C5.071875 8.7215625 5.071875 8.7215625 4.125 8.4375 C0.94397134 6.28562767 0.80548053 3.62466237 0 0 Z " fill="#1F55D6" transform="translate(92,34)"/>
<path d="M0 0 C2.69083082 4.03624622 2.66309259 7.33845909 2 12 C0.18106158 17.98150903 -1.74034588 24.28354651 -6 29 C-6.66 29 -7.32 29 -8 29 C-8 29.66 -8 30.32 -8 31 C-14.74854332 36.96350869 -21.17274027 38.82088756 -30.03125 39.22265625 C-33 39 -33 39 -36 37 C-37.22722535 30.52698786 -35.61228257 24.87763578 -33 19 C-32.34 19 -31.68 19 -31 19 C-30.835 18.13375 -30.67 17.2675 -30.5 16.375 C-28.46156051 11.78851116 -25.27847662 9.51360501 -21 7 C-20.34 7 -19.68 7 -19 7 C-19 6.34 -19 5.68 -19 5 C-12.43345544 2.6969113 -6.96327638 1.66306727 0 2 C0 1.34 0 0.68 0 0 Z " fill="#02A7FD" transform="translate(99,49)"/>
<path d="M0 0 C3.29110633 2.10070617 4.8333853 3.75007795 7 7 C7.77669034 11.27179687 7.94859196 15.33323116 5.76171875 19.17578125 C3.28769638 22.14092468 1.71682539 23.7610582 -2 25 C-6.73039335 25.38773716 -9.05546399 25.48117872 -13.3125 23.3125 C-17.21936658 19.95077759 -18.78190853 17.71357583 -19.4375 12.5625 C-18.7937066 7.3201823 -16.05847803 3.35265576 -12 0 C-7.82351292 -1.39216236 -4.262715 -0.98139836 0 0 Z " fill="#2253CE" transform="translate(55,90)"/>
<path d="M0 0 C3.39121055 2.12721389 5.77364976 4.66047464 8 8 C8.47128944 12.79144265 8.51298393 15.0289947 6.25 19.3125 C3.65316601 22.41427393 1.68958025 24.66542965 -2.3671875 25.46875 C-6.68942001 25.5226096 -9.99467381 25.54941724 -13.5 22.8125 C-16.72141451 19.18840867 -17.76728324 16.82294798 -18.375 12.0625 C-17.79243881 7.30491691 -15.49009513 4.30947754 -11.9375 1.1875 C-7.70739286 -1.40514631 -4.7286648 -1.12205605 0 0 Z " fill="#48DEFB" transform="translate(120,24)"/>
<path d="M0 0 C4.61251942 3.97189172 7.0631034 8.22177215 9 14 C9 14.99 9 15.98 9 17 C9.556875 17.07476562 10.11375 17.14953125 10.6875 17.2265625 C20.2095447 18.86718507 25.93064159 24.03966036 31.5234375 31.7265625 C36.31478185 39.10371174 36.93410157 46.27822015 36 55 C33.56583825 64.77790399 27.97211437 72.47465803 19.42578125 77.74609375 C9.73563272 82.7550111 1.46101048 82.99392619 -8.80078125 79.94921875 C-11.11187394 78.95171338 -12.36536842 77.88855493 -14 76 C-10.14367473 75.91795053 -6.50916458 76.03209104 -2.6875 76.5625 C2.26678431 77.16792889 7.08823284 76.87710128 12 76 C12.33 75.67 12.66 75.34 13 75 C15.33297433 74.95907063 17.66705225 74.95758277 20 75 C20.495 73.02 20.495 73.02 21 71 C23.475 70.505 23.475 70.505 26 70 C26.0825 69.05125 26.165 68.1025 26.25 67.125 C26.4975 66.09375 26.745 65.0625 27 64 C27.6496875 63.68160156 28.299375 63.36320312 28.96875 63.03515625 C31.45619881 62.06520355 31.45619881 62.06520355 32.25 58.3125 C33.49935069 51.6273779 33.16053889 44.76938987 33 38 C32.20207031 37.70867187 31.40414062 37.41734375 30.58203125 37.1171875 C28 36 28 36 26.6875 34.125 C26 32 26 32 26 28 C25.01 27.67 24.02 27.34 23 27 C23 26.01 23 25.02 23 24 C21.4840625 23.566875 21.4840625 23.566875 19.9375 23.125 C19.30199219 22.93679687 18.66648438 22.74859375 18.01171875 22.5546875 C16.11336274 22.0312573 14.180956 21.6361912 12.25 21.25 C9 20 9 20 7.0625 17.1875 C6.0651943 14.19558289 5.72506446 12.11593617 6 9 C5.38125 8.814375 4.7625 8.62875 4.125 8.4375 C0.94397134 6.28562767 0.80548053 3.62466237 0 0 Z " fill="#1A3593" transform="translate(92,34)"/>
<path d="M0 0 C3.39121055 2.12721389 5.77364976 4.66047464 8 8 C8.47128944 12.79144265 8.51298393 15.0289947 6.25 19.3125 C3.65316601 22.41427393 1.68958025 24.66542965 -2.3671875 25.46875 C-6.68942001 25.5226096 -9.99467381 25.54941724 -13.5 22.8125 C-16.72141451 19.18840867 -17.76728324 16.82294798 -18.375 12.0625 C-17.79243881 7.30491691 -15.49009513 4.30947754 -11.9375 1.1875 C-7.70739286 -1.40514631 -4.7286648 -1.12205605 0 0 Z M-16 7 C-16.70308658 11.23487034 -16.78680945 14.86349746 -14.3125 18.4375 C-11.94525928 20.03698698 -9.66284014 20.99243887 -7 22 C-6.67 22.66 -6.34 23.32 -6 24 C-4.68 23.67 -3.36 23.34 -2 23 C-2 22.34 -2 21.68 -2 21 C-0.35 21 1.3 21 3 21 C4.31356533 16.34868669 4.68507617 11.79553316 4 7 C1.88358137 4.22220055 0.52773252 3.23408805 -2.9375 2.703125 C-8.0744233 2.50854457 -12.26103896 3.26103896 -16 7 Z " fill="#4AADCA" transform="translate(120,24)"/>
<path d="M0 0 C3.29110633 2.10070617 4.8333853 3.75007795 7 7 C7.77669034 11.27179687 7.94859196 15.33323116 5.76171875 19.17578125 C3.28769638 22.14092468 1.71682539 23.7610582 -2 25 C-6.73039335 25.38773716 -9.05546399 25.48117872 -13.3125 23.3125 C-17.21936658 19.95077759 -18.78190853 17.71357583 -19.4375 12.5625 C-18.7937066 7.3201823 -16.05847803 3.35265576 -12 0 C-7.82351292 -1.39216236 -4.262715 -0.98139836 0 0 Z M-14.0625 3.3125 C-16.64484321 6.89445994 -17.12483922 9.38609379 -17.0625 13.6875 C-17.05347656 14.49574219 -17.04445312 15.30398437 -17.03515625 16.13671875 C-17.02355469 16.75160156 -17.01195312 17.36648437 -17 18 C-15.11683841 19.10836423 -15.11683841 19.10836423 -13 20 C-12.34 19.67 -11.68 19.34 -11 19 C-11 19.99 -11 20.98 -11 22 C-9.02 22 -7.04 22 -5 22 C-5 21.34 -5 20.68 -5 20 C-3.02 20 -1.04 20 1 20 C1 19.34 1 18.68 1 18 C1.66 18 2.32 18 3 18 C4.64348093 13.0695572 4.81264925 8.73611431 2.625 4.0625 C0.72365974 1.64926044 -0.18156053 1.10139958 -3.20703125 0.7265625 C-9.05253743 0.4726321 -9.05253743 0.4726321 -14.0625 3.3125 Z " fill="#213FA1" transform="translate(55,90)"/>
<path d="M0 0 C1.32 0 2.64 0 4 0 C3.67 1.32 3.34 2.64 3 4 C4.65 3.67 6.3 3.34 8 3 C8.125 10.625 8.125 10.625 7 14 C6.34 14 5.68 14 5 14 C5 14.66 5 15.32 5 16 C3.54263913 16.19491452 2.08405407 16.38069358 0.625 16.5625 C-0.18710937 16.66691406 -0.99921875 16.77132812 -1.8359375 16.87890625 C-4 17 -4 17 -6 16 C-6 14.68 -6 13.36 -6 12 C-5.34 11.67 -4.68 11.34 -4 11 C-1.90530151 7.59611495 -1.03184201 3.83255602 0 0 Z " fill="#1F54DD" transform="translate(51,94)"/>
<path d="M0 0 C2.70454841 4.05682262 2.42076588 7.24210884 2 12 C1 15.5625 1 15.5625 0 18 C-1.10370043 14.6888987 -0.92673641 12.75251051 -0.5625 9.3125 C-0.46066406 8.31863281 -0.35882813 7.32476562 -0.25390625 6.30078125 C-0.17011719 5.54152344 -0.08632812 4.78226563 0 4 C-2.54272475 4.45297947 -5.08405982 4.91220179 -7.625 5.375 C-8.69427734 5.56449219 -8.69427734 5.56449219 -9.78515625 5.7578125 C-13.99905953 6.53100576 -17.95880171 7.53395015 -22 9 C-22 9.99 -22 10.98 -22 12 C-24.53184488 14.35723489 -25.47190093 15 -29 15 C-29.33 16.32 -29.66 17.64 -30 19 C-30.33 18.34 -30.66 17.68 -31 17 C-28.94509948 12.24804256 -25.4108538 9.49771239 -21 7 C-20.34 7 -19.68 7 -19 7 C-19 6.34 -19 5.68 -19 5 C-12.43345544 2.6969113 -6.96327638 1.66306727 0 2 C0 1.34 0 0.68 0 0 Z M-33 19 C-32.34 19.33 -31.68 19.66 -31 20 C-31.30744141 20.8353125 -31.30744141 20.8353125 -31.62109375 21.6875 C-33.43878495 26.83617554 -34.50570547 31.56276016 -35 37 C-35.33 37 -35.66 37 -36 37 C-36.37634203 30.19796625 -35.77471079 25.24309927 -33 19 Z " fill="#13AAF1" transform="translate(99,49)"/>
<path d="M0 0 C4.61251942 3.97189172 7.0631034 8.22177215 9 14 C9 14.99 9 15.98 9 17 C9.556875 17.07476562 10.11375 17.14953125 10.6875 17.2265625 C19.44372998 18.73523726 25.36080602 23.47703218 30.9453125 30.25390625 C32.52143086 32.86325775 32.43212724 35.04713054 32 38 C29.54896452 37.01958581 28.23241214 36.3486182 26.75 34.125 C26 32 26 32 26 28 C25.01 27.67 24.02 27.34 23 27 C23 26.01 23 25.02 23 24 C21.989375 23.71125 20.97875 23.4225 19.9375 23.125 C19.30199219 22.93679687 18.66648437 22.74859375 18.01171875 22.5546875 C16.11336274 22.0312573 14.180956 21.6361912 12.25 21.25 C9 20 9 20 7.0625 17.1875 C6.0651943 14.19558289 5.72506446 12.11593617 6 9 C5.38125 8.814375 4.7625 8.62875 4.125 8.4375 C0.94397134 6.28562767 0.80548053 3.62466237 0 0 Z " fill="#1B4094" transform="translate(92,34)"/>
<path d="M0 0 C5.09405818 6.20146213 4.63451316 13.25178998 4 21 C1.53946293 31.05305148 -4.21317371 38.28384091 -12.75390625 43.87109375 C-15.17200767 45.08645255 -17.33460159 45.59246105 -20 46 C-19.67 45.34 -19.34 44.68 -19 44 C-16.6859378 43.26924352 -14.35171131 42.59861742 -12 42 C-11.67 40.35 -11.34 38.7 -11 37 C-8.525 36.505 -8.525 36.505 -6 36 C-5.9175 35.05125 -5.835 34.1025 -5.75 33.125 C-5.37875 31.578125 -5.37875 31.578125 -5 30 C-4.3503125 29.68417969 -3.700625 29.36835937 -3.03125 29.04296875 C-0.88480374 28.19795919 -0.88480374 28.19795919 -0.171875 26.29296875 C1.58008353 17.54939792 1.64286171 8.76631006 0 0 Z " fill="#142985" transform="translate(124,68)"/>
<path d="M0 0 C0.99 0 1.98 0 3 0 C3.33 4.29 3.66 8.58 4 13 C4.66 13 5.32 13 6 13 C6.66 16.3 7.32 19.6 8 23 C8.99 23.33 9.98 23.66 11 24 C10.67 25.32 10.34 26.64 10 28 C3.36331697 21.21248327 -0.22270937 13.94609258 -0.25 4.3125 C-0.18735707 2.87394984 -0.11210314 1.43554296 0 0 Z " fill="#3C91AD" transform="translate(36,52)"/>
<path d="M0 0 C2.475 0.99 2.475 0.99 5 2 C5 3.98 5 5.96 5 8 C5.99 8.33 6.98 8.66 8 9 C8.70710678 10.64991582 9.36562656 12.3207762 10 14 C11.30581356 16.0180755 12.63636792 18.02053408 14 20 C14.33 20.66 14.66 21.32 15 22 C8.99815734 19.42202731 4.35574651 14.18578058 1.81640625 8.21875 C0 2.16985646 0 2.16985646 0 0 Z " fill="#2142A7" transform="translate(63,88)"/>
<path d="M0 0 C3.86648272 1.04097612 7.49461443 2.03698408 11 4 C11 4.66 11 5.32 11 6 C13.35371114 6.1968999 15.7074695 6.38270974 18.0625 6.5625 C20.02896484 6.71912109 20.02896484 6.71912109 22.03515625 6.87890625 C28.33169732 7.0712144 32.7282262 6.4643085 38 3 C38.66 3 39.32 3 40 3 C40 3.66 40 4.32 40 5 C38.35 5.33 36.7 5.66 35 6 C35 6.66 35 7.32 35 8 C26.24592022 10.91802659 15.42952821 9.46698338 7 6 C4.38440149 4.50471903 2.31729915 2.9568304 0 1 C0 0.67 0 0.34 0 0 Z " fill="#0E6BD7" transform="translate(47,80)"/>
<path d="M0 0 C0.66 0.33 1.32 0.66 2 1 C1.88506243 2.89646998 1.75760358 4.79218332 1.625 6.6875 C1.55539063 7.74324219 1.48578125 8.79898438 1.4140625 9.88671875 C1.00844482 12.93650451 0.37473086 15.25548335 -1 18 C-1.66 18.33 -2.32 18.66 -3 19 C-3.268125 19.7425 -3.53625 20.485 -3.8125 21.25 C-5.30555508 24.70760124 -7.08222733 26.63799355 -10 29 C-12.3125 28.8125 -12.3125 28.8125 -14 28 C-12.68 27.34 -11.36 26.68 -10 26 C-10 25.34 -10 24.68 -10 24 C-9.34 24 -8.68 24 -8 24 C-4.10761155 16.55920161 -0.58871722 8.43828013 0 0 Z " fill="#0E63D8" transform="translate(101,54)"/>
<path d="M0 0 C-2 1 -2 1 -4.6015625 0.22265625 C-6.09816406 -0.35162109 -6.09816406 -0.35162109 -7.625 -0.9375 C-8.62789062 -1.31777344 -9.63078125 -1.69804687 -10.6640625 -2.08984375 C-11.82035156 -2.54037109 -11.82035156 -2.54037109 -13 -3 C-13 -3.33 -13 -3.66 -13 -4 C-20.49949129 -5.72006681 -28.85518438 -6.17547361 -36 -3 C-27.76532579 -14.32267704 -8.74703165 -6.18156148 0 0 Z " fill="#256889" transform="translate(90,31)"/>
<path d="M0 0 C3.0625 2.0625 3.0625 2.0625 5 4 C4.67 4.66 4.34 5.32 4 6 C3.01 5.34 2.02 4.68 1 4 C1 3.34 1 2.68 1 2 C-0.91541138 1.89158049 -2.83259773 1.81421921 -4.75 1.75 C-5.81734375 1.70359375 -6.8846875 1.6571875 -7.984375 1.609375 C-11.05249405 1.76912823 -11.05249405 1.76912823 -13.3125 3.625 C-15.38065438 6.53573579 -15.79010098 8.72410749 -16.25 12.25 C-16.39953125 13.32765625 -16.5490625 14.4053125 -16.703125 15.515625 C-16.80109375 16.33546875 -16.8990625 17.1553125 -17 18 C-19 16 -19 16 -19.375 12.75 C-18.83853672 7.38536722 -16.1431445 3.42259763 -12 0 C-7.83289454 -1.38903515 -4.25203582 -0.99785079 0 0 Z " fill="#0D1D66" transform="translate(55,90)"/>
<path d="M0 0 C0 0.33 0 0.66 0 1 C-7.65585331 2.94640339 -7.65585331 2.94640339 -10.3828125 3.37109375 C-14.72726955 4.4150603 -18.43703144 6.72339291 -22.35546875 8.8203125 C-23.66451172 9.40425781 -23.66451172 9.40425781 -25 10 C-25.66 9.67 -26.32 9.34 -27 9 C-18.5186843 0.81022953 -11.68354686 -0.52575961 0 0 Z " fill="#4CB2CF" transform="translate(72,25)"/>
<path d="M0 0 C7.1670282 -0.48590022 7.1670282 -0.48590022 11 1.75 C13 4 13 4 13 8 C12.34 8 11.68 8 11 8 C10.46375 7.319375 9.9275 6.63875 9.375 5.9375 C7.24733678 3.79589046 7.24733678 3.79589046 4.9609375 3.95703125 C2.96125281 4.22200714 0.97799215 4.60440157 -1 5 C-1.33 4.01 -1.66 3.02 -2 2 C-1.34 2 -0.68 2 0 2 C0 1.34 0 0.68 0 0 Z " fill="#40E1F8" transform="translate(111,27)"/>
<path d="M0 0 C3.88976003 4.73536004 4.15274811 8.43926962 4.1875 14.5 C4.20167969 15.6240625 4.21585938 16.748125 4.23046875 17.90625 C4.00970218 20.86976056 3.5460647 22.5067415 2 25 C1.67 25 1.34 25 1 25 C1.01160156 23.69804688 1.02320312 22.39609375 1.03515625 21.0546875 C1.04453973 19.32812644 1.05363934 17.60156382 1.0625 15.875 C1.07087891 15.0190625 1.07925781 14.163125 1.08789062 13.28125 C1.10538306 8.73321589 0.93192358 4.47616836 0 0 Z " fill="#142A7A" transform="translate(124,68)"/>
<path d="M0 0 C1.71875 1.546875 1.71875 1.546875 3 3 C2.1646875 2.94779297 2.1646875 2.94779297 1.3125 2.89453125 C-5.33747751 2.65863678 -10.02557024 4.01278512 -16 7 C-14.60415208 3.62670085 -13.07634389 1.95767338 -10 0 C-6.22941703 -1.25686099 -3.86146303 -0.82745636 0 0 Z " fill="#337797" transform="translate(120,24)"/>
<path d="M0 0 C0.66 0 1.32 0 2 0 C2 0.66 2 1.32 2 2 C-4.78094991 7.99214553 -11.22963635 9.82301762 -20.12890625 10.22265625 C-23 10 -23 10 -25 8 C-24.09378906 7.98582031 -23.18757813 7.97164063 -22.25390625 7.95703125 C-13.3416693 7.60808652 -6.46525711 6.46525711 0 0 Z " fill="#1598F8" transform="translate(89,78)"/>
<path d="M0 0 C2.97 0.495 2.97 0.495 6 1 C6.33 1.99 6.66 2.98 7 4 C12.03511899 5.0070238 15.23947038 4.97387813 20 3 C18 6 18 6 15 7 C10.13918174 7.39842773 7.91784554 7.48395492 3.5625 5.1875 C1 3 1 3 0 0 Z " fill="#183386" transform="translate(38,108)"/>
<path d="M0 0 C0.598125 0.226875 1.19625 0.45375 1.8125 0.6875 C1.1525 0.6875 0.4925 0.6875 -0.1875 0.6875 C-1.6725 6.1325 -1.6725 6.1325 -3.1875 11.6875 C-3.8475 11.6875 -4.5075 11.6875 -5.1875 11.6875 C-5.26881463 10.25094146 -5.32683559 8.8130517 -5.375 7.375 C-5.40980469 6.57449219 -5.44460937 5.77398437 -5.48046875 4.94921875 C-5.1875 2.6875 -5.1875 2.6875 -3.8125 0.875 C-2.1875 -0.3125 -2.1875 -0.3125 0 0 Z " fill="#5BD9F4" transform="translate(109.1875,28.3125)"/>
<path d="M0 0 C3 0 3 0 4.6875 1.625 C6.32162419 4.58198664 6.22692276 6.67179946 6 10 C3.54896452 9.01958581 2.23241214 8.3486182 0.75 6.125 C0 4 0 4 0 0 Z " fill="#2444AE" transform="translate(118,62)"/>
<path d="M0 0 C1.32 0.33 2.64 0.66 4 1 C4.12117188 1.66386719 4.24234375 2.32773438 4.3671875 3.01171875 C5.22547708 7.53424459 6.03971311 11.79938524 8 16 C2.83419879 11.81151253 1.45689238 7.39611288 0 1 C0 0.67 0 0.34 0 0 Z " fill="#153289" transform="translate(63,88)"/>
<path d="M0 0 C0.99 0.33 1.98 0.66 3 1 C1.59561113 4.39393978 0.13616902 6.08345227 -3 8 C-5.578125 8.29296875 -5.578125 8.29296875 -8.25 8.1875 C-9.14203125 8.16042969 -10.0340625 8.13335937 -10.953125 8.10546875 C-11.62859375 8.07066406 -12.3040625 8.03585938 -13 8 C-13 7.67 -13 7.34 -13 7 C-10.36 6.67 -7.72 6.34 -5 6 C-5 5.34 -5 4.68 -5 4 C-3.35 4 -1.7 4 0 4 C0 2.68 0 1.36 0 0 Z " fill="#3887AA" transform="translate(123,41)"/>
<path d="M0 0 C0.93423645 3.01031744 1.04449911 3.86650268 0 7 C-0.639375 7.61875 -1.27875 8.2375 -1.9375 8.875 C-4.14791243 11.15239462 -5.00569366 13.01708098 -6 16 C-7.0255368 13.32738894 -7.08282493 12.2243612 -6.07421875 9.4921875 C-5.61660156 8.62851562 -5.15898438 7.76484375 -4.6875 6.875 C-4.23761719 6.00617187 -3.78773437 5.13734375 -3.32421875 4.2421875 C-2 2 -2 2 0 0 Z " fill="#3589AA" transform="translate(44,35)"/>
<path d="M0 0 C1.32 0 2.64 0 4 0 C4 0.99 4 1.98 4 3 C3.34 3 2.68 3 2 3 C1.67 4.65 1.34 6.3 1 8 C0.01 8 -0.98 8 -2 8 C-2.125 5.125 -2.125 5.125 -2 2 C-1.34 1.34 -0.68 0.68 0 0 Z " fill="#1C57D0" transform="translate(52,102)"/>
<path d="M0 0 C0.66 0 1.32 0 2 0 C0.78065514 4.03321763 -0.55954927 7.54269479 -3 11 C-3.66 11 -4.32 11 -5 11 C-5 9.02 -5 7.04 -5 5 C-4.360625 4.731875 -3.72125 4.46375 -3.0625 4.1875 C-0.66868314 3.11332248 -0.66868314 3.11332248 0 0 Z " fill="#1B3496" transform="translate(124,93)"/>
<path d="M0 0 C3.86648272 1.04097612 7.49461443 2.03698408 11 4 C11 4.66 11 5.32 11 6 C12.32 6.33 13.64 6.66 15 7 C13 8 13 8 10.9765625 7.36328125 C6.61970713 5.4164472 3.09871213 3.7723452 0 0 Z " fill="#3882A0" transform="translate(47,80)"/>
<path d="M0 0 C4.76622787 3.8129823 4.76622787 3.8129823 5.40234375 7.04296875 C5.4375 9.1875 5.4375 9.1875 5 13 C4.34 13.66 3.68 14.32 3 15 C2.86722656 14.16855469 2.73445313 13.33710937 2.59765625 12.48046875 C2.42105469 11.39378906 2.24445313 10.30710937 2.0625 9.1875 C1.88847656 8.10855469 1.71445313 7.02960937 1.53515625 5.91796875 C1.06128079 2.95066644 1.06128079 2.95066644 0 0 Z " fill="#347896" transform="translate(123,27)"/>
<path d="M0 0 C1.08667969 0.01804687 2.17335938 0.03609375 3.29296875 0.0546875 C4.54013672 0.08949219 4.54013672 0.08949219 5.8125 0.125 C5.8125 0.455 5.8125 0.785 5.8125 1.125 C3.82682292 1.61328125 1.84114583 2.1015625 -0.14453125 2.58984375 C-1.84433202 3.03510705 -3.52051954 3.56933985 -5.1875 4.125 C-7.375 3.1875 -7.375 3.1875 -9.1875 2.125 C-5.66070901 -0.22619399 -4.15870515 -0.08943452 0 0 Z " fill="#58CAE5" transform="translate(66.1875,24.875)"/>
<path d="M0 0 C0.66 0.33 1.32 0.66 2 1 C0.4198632 3.15473199 -1.10646634 5.10646634 -3 7 C-6 7 -6 7 -8 6 C-3.375 1.125 -3.375 1.125 0 0 Z " fill="#53DAF7" transform="translate(51,32)"/>
<path d="M0 0 C1.134375 0.020625 2.26875 0.04125 3.4375 0.0625 C0.88475126 2.51855371 -0.42140643 3.05052939 -4.015625 3.35546875 C-5.26859375 3.32066406 -6.5215625 3.28585938 -7.8125 3.25 C-9.07578125 3.22292969 -10.3390625 3.19585937 -11.640625 3.16796875 C-12.60484375 3.13316406 -13.5690625 3.09835938 -14.5625 3.0625 C-14.5625 2.7325 -14.5625 2.4025 -14.5625 2.0625 C-13.85222656 2.00191406 -13.14195313 1.94132812 -12.41015625 1.87890625 C-11.03150391 1.75322266 -11.03150391 1.75322266 -9.625 1.625 C-8.70847656 1.54378906 -7.79195313 1.46257812 -6.84765625 1.37890625 C-3.46322053 0.91029207 -3.92605044 0.06887808 0 0 Z " fill="#2851C9" transform="translate(108.5625,108.9375)"/>
<path d="M0 0 C-1.98 0.66 -3.96 1.32 -6 2 C-6 2.99 -6 3.98 -6 5 C-8 6.6875 -8 6.6875 -10 8 C-10.66 7.67 -11.32 7.34 -12 7 C-10.95724749 3.7558811 -9.38759509 2.39805336 -6.5625 0.6875 C-3 -1 -3 -1 0 0 Z " fill="#09AAEC" transform="translate(83,56)"/>
<path d="M0 0 C0.33 0 0.66 0 1 0 C1.08159574 4.16138263 0.98248524 7.9472484 0 12 C-0.66 12 -1.32 12 -2 12 C-2.28571429 3.42857143 -2.28571429 3.42857143 0 0 Z " fill="#05A9ED" transform="translate(66,74)"/>
<path d="M0 0 C8.57142857 2 8.57142857 2 12 4 C11.34 5.32 10.68 6.64 10 8 C9.67 6.68 9.34 5.36 9 4 C8.2575 3.855625 7.515 3.71125 6.75 3.5625 C4.47972261 3.09812508 2.24240521 2.58136431 0 2 C0 1.34 0 0.68 0 0 Z " fill="#51C5E4" transform="translate(80,29)"/>
<path d="M0 0 C6.95171674 6.76877682 6.95171674 6.76877682 7.125 11.1875 C7.08375 12.115625 7.0425 13.04375 7 14 C6.67 14 6.34 14 6 14 C6 12.35 6 10.7 6 9 C5.38125 8.814375 4.7625 8.62875 4.125 8.4375 C0.94397134 6.28562767 0.80548053 3.62466237 0 0 Z " fill="#3286A0" transform="translate(92,34)"/>
<path d="M0 0 C4.29 0 8.58 0 13 0 C13 0.33 13 0.66 13 1 C6.07 2.485 6.07 2.485 -1 4 C-0.67 2.68 -0.34 1.36 0 0 Z " fill="#35D5FD" transform="translate(83,50)"/>
<path d="M0 0 C0.66 0 1.32 0 2 0 C2.33 1.98 2.66 3.96 3 6 C0 6 0 6 -1.6875 4.5 C-2.120625 4.005 -2.55375 3.51 -3 3 C-2.01 2.67 -1.02 2.34 0 2 C0 1.34 0 0.68 0 0 Z " fill="#56D5F4" transform="translate(49,75)"/>
<path d="M0 0 C0.70803998 2.5287142 1.13352283 4.9513502 1.5 7.5625 C1.8927843 10.97232187 1.8927843 10.97232187 3 14 C1.68 13.34 0.36 12.68 -1 12 C-1.02712066 10.56260487 -1.04645067 9.12506137 -1.0625 7.6875 C-1.07410156 6.88699219 -1.08570313 6.08648437 -1.09765625 5.26171875 C-1 3 -1 3 0 0 Z " fill="#3050BC" transform="translate(39,96)"/>
<path d="M0 0 C0.33 0 0.66 0 1 0 C1.43200679 4.75207471 -0.01510917 7.78210698 -2 12 C-2.33 12 -2.66 12 -3 12 C-2.14285714 3.42857143 -2.14285714 3.42857143 0 0 Z " fill="#5CC4E2" transform="translate(40,44)"/>
<path d="M0 0 C3.96 0 7.92 0 12 0 C12 0.33 12 0.66 12 1 C9.36 1 6.72 1 4 1 C4 1.66 4 2.32 4 3 C3.01 3 2.02 3 1 3 C0.67 2.01 0.34 1.02 0 0 Z " fill="#52DCF8" transform="translate(66,26)"/>
<path d="M0 0 C0.99 0 1.98 0 3 0 C2 2 1 4 0 6 C-0.66 6 -1.32 6 -2 6 C-1.125 1.125 -1.125 1.125 0 0 Z " fill="#1496FA" transform="translate(93,72)"/>
</svg>
